<svg width="56.693" height="56.693" xmlns="http://www.w3.org/2000/svg">

 <g>
  <title>background</title>
  <rect fill="none" id="canvas_background" height="402" width="582" y="-1" x="-1"/>
 </g>
 <g>
  <title>Layer 1</title>
  <path id="svg_2" d="m30.070999,27.101l0,-0.077c-0.015999,0.025999 -0.032999,0.052 -0.049999,0.077l0.049999,0z"/>
  <path fill="#ffffff" id="svg_3" d="m49.264999,4.607628l-42.119999,0c-2.016,0 -3.651,1.596 -3.651,3.563l0,42.612998c0,1.966 1.635,3.562 3.651,3.562l42.119999,0c2.019001,0 3.653999,-1.597 3.653999,-3.562l0,-42.612998c0,-1.968 -1.635998,-3.563 -3.653999,-3.563zm-30.789999,41.637001l-7.465,0l0,-22.459002l7.465,0l0,22.459002zm-3.732,-25.527l-0.05,0c-2.504,0 -4.124,-1.725 -4.124,-3.880001c0,-2.202998 1.67,-3.879998 4.223,-3.879998c2.554001,0 4.125,1.677 4.174999,3.879998c0,2.155001 -1.622,3.880001 -4.223999,3.880001zm30.651001,25.527l-7.465,0l0,-12.018002c0,-3.018 -1.080002,-5.077999 -3.781002,-5.077999c-2.062,0 -3.289999,1.389 -3.830999,2.730999c-0.196999,0.479 -0.244999,1.149002 -0.244999,1.820999l0,12.543003l-7.465,0c0,0 0.098,-20.354002 0,-22.459002l7.465,0l0,3.179001c0.991999,-1.530001 2.766001,-3.709002 6.728998,-3.709002c4.911003,0 8.594002,3.211 8.594002,10.110001l0,12.880001l-0.000999,0z"/>
 </g>
</svg>